<svg xmlns="http://www.w3.org/2000/svg" viewBox="0 0 91 32"><g fill="#FFF"><path d="M10.586 10.935c-.25-.726-.771-1.339-1.565-1.838-.795-.499-1.835-.749-3.121-.749H0v15.271h3.45v-5.876h1.679c1.073 0 1.981-.106 2.722-.318.741-.212 1.342-.514 1.804-.908a3.35 3.35 0 0 0 .999-1.463c.204-.582.306-1.251.306-2.008a6.49 6.49 0 0 0-.374-2.111zm-7.141 4.869v-5.553l4.759 2.777-4.759 2.776zm8.34 7.815V8.348h3.494v12.298h6.286l-.363 2.973h-9.417z"/><path d="M18.752 23.619L24.22 8.348h3.313l5.445 15.271h-3.517l-1.266-3.699h-4.798l-1.265 3.699h-3.38zm5.499-6.489h3.107l-1.527-4.97-1.58 4.97zm10.247 6.489v-6.467l-5.014-8.804h3.766l3.086 5.945 3.109-5.945h3.54l-4.992 8.804v6.467h-3.495z"/></g><path fill="#AF001E" d="M48 0h42.667v32H48z"/><path d="M81.638 22.945c0 .472.142.637.613.637h2.17c.472 0 .613-.164.613-.637V9.056c0-.471-.141-.637-.613-.637h-2.17c-.472 0-.613.166-.613.637v13.889zm-13.419-1.792l-.284 1.816c-.047.353.118.495.426.542.683.094 2.405.211 4.079.211 3.75 0 6.485-1.226 6.485-4.716 0-2.052-.897-3.585-4.009-4.386l-1.745-.447c-1.18-.307-1.721-.684-1.721-1.556 0-1.226 1.132-1.462 2.217-1.462 1.461 0 2.947.118 3.537.165.614.047.778-.023.873-.542l.282-1.769c.048-.353-.118-.495-.424-.542-.684-.095-2.193-.212-4.104-.212-3.89 0-5.777 1.697-5.777 4.386 0 2.429 1.32 3.867 3.608 4.456l1.745.448c1.438.377 2.051.802 2.051 1.699 0 1.32-.896 1.556-3.065 1.556-.991 0-2.712-.141-3.301-.189-.615-.048-.779.022-.873.542zm-8.982-5.4l-.236.99c-.071.283-.094.425-.094.519 0 .236.071.424.235.707l2.806 5.047c.236.401.425.565.991.565h2.57c.329 0 .731-.212.353-.801l-3.443-5.707c1.155-.731 2.452-1.769 2.452-4.055 0-2.947-1.65-4.599-5.282-4.599H54.33c-.471 0-.613.166-.613.637v13.889c0 .472.142.637.613.637h2.17c.472 0 .614-.164.614-.637v-11.72h2.241c1.415 0 2.098.519 2.098 1.84 0 1.202-.542 1.579-1.086 1.814-.682.284-.917-.023-1.13.874z" fill="#FFF"/></svg>