<svg xmlns="http://www.w3.org/2000/svg" viewBox="0 0 96 32">
    <g fill="#FFF">
        <path d="M10.586 10.935c-.25-.726-.771-1.339-1.565-1.838-.795-.499-1.835-.749-3.121-.749H0v15.271h3.45v-5.876h1.679c1.073 0 1.981-.106 2.722-.318.741-.212 1.342-.514 1.804-.908a3.35 3.35 0 0 0 .999-1.463c.204-.582.306-1.251.306-2.008a6.49 6.49 0 0 0-.374-2.111zm-7.141 4.869v-5.553l4.759 2.777-4.759 2.776zm8.34 7.815V8.348h3.494v12.298h6.286l-.363 2.973h-9.417z"/>
        <path d="M18.752 23.619L24.22 8.348h3.313l5.445 15.271h-3.517l-1.266-3.699h-4.798l-1.265 3.699h-3.38zm5.499-6.489h3.107l-1.527-4.97-1.58 4.97zm10.247 6.489v-6.467l-5.014-8.804h3.766l3.086 5.945 3.109-5.945h3.54l-4.992 8.804v6.467h-3.495z"/>
    </g>
    <path fill="#AF001E" d="M48 0h48v32H48z"/>
    <path d="M84.358 14.531V11.3h6.224c.476 0 .618-.167.618-.642V8.995c0-.475-.142-.641-.618-.641h-9.027c-.475 0-.618.166-.618.641v13.993c0 .475.144.641.618.641h2.186c.475 0 .617-.166.617-.641v-5.512h5.654c.475 0 .618-.165.618-.641v-1.663c0-.476-.144-.642-.618-.642h-5.654zm-12.582 1.212l-.238.998c-.071.285-.094.427-.094.522 0 .238.071.428.238.713l2.826 5.084c.236.404.428.57.998.57h2.59c.331 0 .735-.214.356-.807l-3.469-5.75c1.162-.736 2.471-1.781 2.471-4.085 0-2.969-1.663-4.633-5.322-4.633h-5.298c-.476 0-.618.166-.618.641v13.993c0 .475.142.641.618.641h2.185c.476 0 .618-.166.618-.641V11.181h2.257c1.426 0 2.115.524 2.115 1.854 0 1.211-.546 1.592-1.093 1.83-.688.284-.927-.026-1.14.878zm-18.41 5.44l-.284 1.828c-.048.357.119.5.427.548.69.094 2.424.213 4.11.213 3.778 0 6.534-1.235 6.534-4.751 0-2.067-.902-3.611-4.038-4.419l-1.759-.452c-1.187-.308-1.734-.688-1.734-1.567 0-1.235 1.14-1.473 2.232-1.473 1.475 0 2.97.119 3.564.166.618.048.783-.023.878-.546l.286-1.782c.047-.356-.119-.499-.429-.546-.688-.096-2.208-.215-4.133-.215-3.92 0-5.82 1.71-5.82 4.419 0 2.447 1.33 3.896 3.635 4.49l1.758.451c1.449.381 2.067.808 2.067 1.712 0 1.33-.904 1.566-3.089 1.566-.997 0-2.732-.142-3.326-.19-.618-.046-.784.026-.879.548z"
          fill="#FFF"/>
</svg>
