<svg xmlns="http://www.w3.org/2000/svg" viewBox="0 0 98 32"><g fill="#FFF"><path d="M10.586 10.936c-.25-.726-.771-1.339-1.565-1.838-.795-.499-1.835-.748-3.121-.748H0v15.27h3.45v-5.876h1.679c1.073 0 1.981-.106 2.722-.318.741-.212 1.342-.514 1.804-.908a3.35 3.35 0 0 0 .999-1.463c.204-.582.306-1.251.306-2.008 0-.681-.125-1.385-.374-2.111zm-7.141 4.869v-5.553l4.759 2.777-4.759 2.776zm8.34 7.815V8.35h3.494v12.298h6.286l-.363 2.973h-9.417z"/><path d="M18.752 23.62L24.22 8.35h3.313l5.445 15.271h-3.517l-1.266-3.699h-4.798l-1.265 3.699h-3.38zm5.499-6.489h3.107l-1.527-4.97-1.58 4.97zm10.247 6.489v-6.467L29.484 8.35h3.766l3.086 5.945 3.109-5.945h3.54l-4.992 8.804v6.467h-3.495z"/></g><path fill="#AF001E" d="M48 .001h49.778v32H48z"/><path d="M86.136 15.753l-.236.99c-.071.283-.094.425-.094.519 0 .236.072.424.236.707l2.806 5.047c.236.401.425.565.991.565h2.57c.33 0 .731-.212.354-.801l-3.443-5.706c1.156-.731 2.452-1.769 2.452-4.056 0-2.947-1.651-4.598-5.282-4.598h-5.258c-.472 0-.614.166-.614.637v13.889c0 .472.142.637.614.637h2.169c.472 0 .614-.164.614-.637v-11.72h2.24c1.414 0 2.098.519 2.098 1.84 0 1.202-.542 1.58-1.084 1.815-.684.283-.921-.024-1.133.872zm-15.444 7.192c0 .472.141.637.613.637h2.17c.472 0 .613-.164.613-.637V11.297h4.009c.472 0 .613-.165.613-.637V9.056c0-.471-.141-.637-.613-.637H66.683c-.472 0-.614.166-.614.637v1.604c0 .471.141.637.614.637h4.008v11.648zm-11.459-7.192l-.236.99c-.071.283-.094.425-.094.519 0 .236.072.424.236.707l2.806 5.047c.236.401.425.565.991.565h2.57c.33 0 .731-.212.354-.801l-3.443-5.706c1.156-.731 2.452-1.769 2.452-4.056 0-2.947-1.651-4.598-5.282-4.598h-5.258c-.472 0-.614.166-.614.637v13.889c0 .472.142.637.614.637h2.169c.472 0 .614-.164.614-.637v-11.72h2.24c1.414 0 2.098.519 2.098 1.84 0 1.202-.542 1.58-1.084 1.815-.685.283-.921-.024-1.133.872z" fill="#FFF"/></svg>