<svg xmlns="http://www.w3.org/2000/svg" viewBox="0 0 97 32"><g fill="#FFF"><path d="M10.586 10.935c-.25-.726-.771-1.339-1.565-1.838-.795-.499-1.835-.749-3.121-.749H0v15.271h3.45v-5.876h1.679c1.073 0 1.981-.106 2.722-.318.741-.212 1.342-.514 1.804-.908a3.35 3.35 0 0 0 .999-1.463c.204-.582.306-1.251.306-2.008a6.49 6.49 0 0 0-.374-2.111zm-7.141 4.869v-5.553l4.759 2.777-4.759 2.776zm8.34 7.815V8.348h3.494v12.298h6.286l-.363 2.973h-9.417z"/><path d="M18.752 23.619L24.22 8.348h3.313l5.445 15.271h-3.517l-1.266-3.699h-4.798l-1.265 3.699h-3.38zm5.499-6.489h3.107l-1.527-4.97-1.58 4.97zm10.247 6.489v-6.467l-5.014-8.804h3.766l3.086 5.945 3.109-5.945h3.54l-4.992 8.804v6.467h-3.495z"/></g><path fill="#AF001E" d="M48 0h48.889v32H48z"/><path fill="#FFF" d="M90.01 8.42c.471 0 .612.165.612.636v13.888c0 .472-.141.636-.612.636h-2.17c-.471 0-.613-.165-.613-.636V9.056c0-.472.142-.636.613-.636h2.17zM70.172 23.582a.89.89 0 0 1-.818-.638L65.861 9.063c-.088-.351.137-.638.498-.638h2.518a.82.82 0 0 1 .776.648l1.855 9.74 2.367-9.747a.872.872 0 0 1 .808-.642h1.955c.362 0 .726.288.81.641l2.387 9.748 1.834-9.74a.818.818 0 0 1 .775-.648h2.361c.362 0 .585.287.497.638l-3.534 13.883a.893.893 0 0 1-.821.637h-2.268a.87.87 0 0 1-.808-.642l-2.311-9.666-2.354 9.667a.872.872 0 0 1-.808.641h-2.226zm-16.146-2.43l-.283 1.816c-.047.354.118.495.423.542.685.095 2.406.213 4.079.213 3.751 0 6.487-1.227 6.487-4.716 0-2.052-.897-3.584-4.01-4.385l-1.744-.448c-1.178-.306-1.722-.684-1.722-1.557 0-1.226 1.132-1.462 2.215-1.462 1.466 0 2.949.118 3.538.165.614.048.779-.023.873-.542l.284-1.768c.046-.354-.119-.495-.426-.542-.684-.096-2.193-.213-4.103-.213-3.891 0-5.777 1.698-5.777 4.386 0 2.428 1.321 3.867 3.607 4.456l1.746.448c1.438.377 2.051.8 2.051 1.698 0 1.321-.896 1.556-3.067 1.556-.989 0-2.709-.142-3.299-.189-.612-.047-.777.023-.872.542"/></svg>